<?xml version="1.0" encoding="UTF-8" standalone="no"?>
<svg
   xmlns:dc="http://purl.org/dc/elements/1.1/"
   xmlns:cc="http://creativecommons.org/ns#"
   xmlns:rdf="http://www.w3.org/1999/02/22-rdf-syntax-ns#"
   xmlns:svg="http://www.w3.org/2000/svg"
   xmlns="http://www.w3.org/2000/svg"
   id="svg8"
   preserveAspectRatio="xMidYMid meet"
   viewBox="0 0 4030.000000 4030.000000"
   height="4030.000000pt"
   width="4030.000000pt"
   version="1.0">
  <defs
     id="defs12" />
  <metadata
     id="metadata2">
Created by potrace 1.15, written by Peter Selinger 2001-2017
<rdf:RDF>
  <cc:Work
     rdf:about="">
    <dc:format>image/svg+xml</dc:format>
    <dc:type
       rdf:resource="http://purl.org/dc/dcmitype/StillImage" />
  </cc:Work>
</rdf:RDF>
</metadata>
  <g
     id="g6"
     stroke="none"
     fill="#000000"
     transform="translate(0.000000,4030.000000) scale(0.100000,-0.100000)">
    <path
       id="path4"
       d="M7029 35013 c-46 -39 -53 -48 -81 -96 -9 -16 -37 -50 -61 -76 -24 -26 -54 -66 -67 -90 -12 -24 -40 -62 -62 -85 -22 -22 -47 -54 -55 -71 -9 -16 -31 -51 -49 -76 -19 -26 -34 -51 -34 -56 0 -6 -27 -41 -60 -78 -33 -37 -60 -74 -60 -81 0 -7 -24 -39 -52 -71 -29 -32 -62 -74 -72 -93 -10 -19 -27 -44 -36 -55 -10 -11 -25 -33 -33 -50 -8 -16 -38 -55 -66 -87 -28 -31 -51 -61 -51 -67 0 -6 -25 -38 -55 -72 -30 -34 -55 -67 -55 -73 0 -6 -18 -33 -40 -61 -22 -27 -40 -54 -40 -58 0 -11 -38 -62 -78 -104 -18 -19 -41 -52 -52 -72 -10 -21 -26 -43 -35 -51 -9 -7 -25 -34 -37 -58 -11 -25 -37 -62 -59 -83 -21 -20 -48 -55 -60 -78 -11 -23 -40 -63 -63 -89 -23 -26 -54 -67 -70 -91 -16 -25 -33 -50 -38 -55 -4 -6 -33 -49 -63 -96 -30 -47 -78 -111 -107 -143 -58 -64 -137 -172 -165 -227 -10 -19 -37 -56 -61 -82 -24 -25 -53 -63 -64 -85 -11 -21 -40 -59 -63 -84 -24 -25 -52 -64 -63 -86 -11 -22 -28 -46 -38 -54 -9 -8 -25 -31 -34 -51 -9 -21 -38 -60 -63 -88 -26 -28 -47 -55 -47 -61 0 -12 -91 -139 -151 -209 -26 -30 -49 -64 -53 -75 -3 -11 -27 -42 -52 -70 -25 -27 -55 -67 -66 -89 -11 -21 -29 -48 -40 -60 -11 -12 -26 -35 -34 -52 -7 -17 -34 -53 -59 -80 -26 -27 -55 -65 -65 -84 -10 -19 -32 -52 -49 -74 -17 -21 -31 -45 -31 -52 0 -7 -23 -37 -51 -66 -28 -29 -59 -71 -71 -92 -11 -21 -39 -60 -62 -85 -23 -25 -66 -84 -96 -131 -30 -47 -72 -105 -93 -130 -22 -25 -46 -58 -54 -75 -8 -16 -30 -46 -48 -65 -18 -19 -62 -80 -98 -135 -36 -55 -83 -120 -105 -145 -22 -25 -55 -70 -73 -100 -18 -30 -39 -61 -46 -68 -7 -7 -20 -28 -29 -47 -8 -18 -30 -49 -48 -67 -34 -35 -130 -172 -155 -219 -7 -15 -36 -54 -65 -87 -28 -33 -71 -93 -96 -133 -25 -41 -74 -105 -110 -144 -40 -42 -79 -97 -98 -138 -21 -43 -61 -98 -108 -149 -41 -44 -74 -85 -74 -89 0 -11 -80 -134 -113 -174 -13 -16 -33 -48 -45 -70 -11 -22 -30 -49 -42 -60 -12 -11 -41 -47 -63 -80 -23 -33 -52 -71 -65 -85 -13 -14 -58 -77 -99 -140 -42 -63 -98 -136 -124 -162 -43 -41 -116 -161 -111 -181 1 -4 -30 -40 -69 -79 -39 -40 -77 -86 -86 -102 -8 -17 -29 -49 -45 -71 -31 -43 -79 -115 -115 -174 -12 -20 -39 -56 -61 -81 -21 -25 -49 -61 -62 -80 -13 -19 -35 -48 -50 -65 -15 -16 -57 -75 -93 -130 -36 -55 -84 -122 -107 -150 -39 -47 -64 -83 -133 -193 -16 -25 -57 -77 -92 -115 -39 -42 -78 -99 -100 -144 -19 -41 -53 -92 -74 -112 -21 -20 -48 -55 -59 -77 -11 -21 -38 -58 -61 -82 -22 -23 -48 -57 -57 -75 -10 -18 -24 -39 -34 -47 -18 -16 -142 -191 -179 -253 -12 -20 -31 -43 -41 -50 -10 -7 -32 -37 -50 -67 -17 -30 -45 -70 -61 -89 -16 -20 -29 -41 -29 -48 0 -7 -32 -48 -71 -90 -85 -91 -122 -161 -108 -202 5 -15 176 -193 380 -396 542 -542 583 -584 634 -654 26 -35 723 -741 1549 -1568 825 -828 1508 -1517 1516 -1533 8 -16 36 -52 62 -82 25 -29 563 -570 1195 -1201 737 -737 1159 -1166 1178 -1197 19 -32 514 -535 1397 -1417 914 -914 1375 -1382 1392 -1413 16 -30 387 -409 1088 -1112 1374 -1379 1380 -1386 1398 -1418 18 -33 934 -961 2136 -2163 593 -593 882 -890 905 -927 23 -38 426 -448 1297 -1320 782 -782 1278 -1286 1300 -1320 43 -66 2423 -2450 2446 -2450 9 0 54 -38 100 -85 58 -59 92 -85 108 -85 16 0 50 26 108 85 47 47 91 85 100 85 23 0 1871 1855 1913 1920 22 35 352 372 893 912 1347 1344 1560 1560 1580 1599 11 21 637 657 1447 1470 786 788 1441 1452 1457 1477 15 24 628 647 1361 1385 812 815 1350 1364 1376 1401 25 38 554 573 1387 1406 740 740 1346 1350 1346 1357 0 6 18 33 39 60 21 26 636 644 1366 1373 887 887 1334 1339 1348 1368 15 28 439 459 1269 1290 836 836 1251 1259 1261 1282 9 23 278 298 808 825 436 435 848 844 916 910 150 147 151 152 68 246 -30 34 -52 65 -49 70 3 5 0 9 -5 9 -6 0 -11 5 -11 11 0 6 -21 33 -47 61 -27 27 -51 63 -56 79 -4 16 -11 28 -16 26 -13 -3 -60 52 -76 89 -8 17 -34 53 -58 80 -24 27 -51 63 -60 79 -8 17 -28 47 -44 67 -15 20 -39 56 -53 79 -14 23 -35 52 -48 64 -12 11 -37 42 -55 67 -17 26 -49 68 -70 95 -48 61 -101 138 -126 183 -11 19 -36 53 -57 75 -20 22 -52 66 -71 97 -18 31 -38 60 -43 63 -6 4 -20 25 -31 47 -12 23 -40 61 -62 85 -23 24 -46 56 -53 71 -6 15 -37 55 -68 90 -31 34 -56 69 -56 76 0 7 -10 24 -21 37 -12 13 -39 52 -60 86 -22 33 -46 64 -54 67 -8 3 -28 29 -44 58 -17 29 -48 70 -69 90 -22 20 -45 52 -53 70 -7 18 -20 40 -28 48 -8 8 -30 39 -49 70 -19 30 -52 74 -73 97 -21 22 -47 59 -58 81 -11 23 -25 44 -31 47 -6 3 -19 24 -30 46 -12 22 -43 64 -70 94 -27 30 -56 70 -64 87 -7 18 -37 58 -65 88 -28 30 -51 57 -51 61 0 6 -80 132 -99 155 -6 7 -29 43 -54 80 -24 38 -60 83 -80 101 -20 18 -53 58 -73 90 -20 32 -44 67 -54 78 -9 11 -26 36 -36 55 -10 19 -36 52 -58 74 -21 21 -45 55 -53 74 -8 18 -32 56 -54 84 -21 27 -39 54 -39 59 0 6 -22 34 -49 62 -27 29 -58 70 -69 92 -11 22 -34 54 -52 70 -17 17 -41 46 -52 65 -39 64 -112 175 -125 188 -8 8 -21 28 -30 45 -8 18 -35 53 -58 78 -24 25 -51 61 -60 80 -10 19 -37 55 -60 80 -24 25 -51 61 -60 80 -10 19 -30 50 -45 69 -14 19 -39 57 -54 83 -15 26 -36 53 -47 60 -11 7 -34 37 -52 67 -17 30 -48 72 -70 94 -21 21 -47 56 -58 78 -11 22 -38 57 -60 78 -21 20 -39 40 -39 44 0 19 -187 290 -240 348 -34 37 -71 85 -82 105 -11 21 -30 49 -43 63 -13 14 -32 43 -43 65 -11 22 -32 51 -47 65 -24 22 -38 41 -90 121 -59 91 -78 120 -103 154 -16 22 -36 54 -45 70 -8 17 -33 49 -56 73 -22 23 -48 56 -56 73 -9 17 -31 47 -49 67 -18 20 -62 80 -97 132 -35 52 -85 119 -111 148 -26 30 -48 60 -48 67 0 8 -13 29 -28 47 -16 18 -40 53 -54 78 -14 25 -54 73 -87 108 -34 34 -61 67 -61 74 0 6 -17 34 -39 62 -21 29 -48 70 -59 91 -12 22 -40 58 -62 80 -22 22 -43 49 -46 60 -4 11 -24 43 -45 71 -22 28 -39 55 -39 60 0 5 -20 29 -45 54 -24 25 -44 49 -45 53 0 15 -122 191 -158 229 -20 21 -47 57 -61 82 -49 83 -105 161 -163 224 -32 34 -67 79 -79 100 -19 35 -56 90 -117 177 -15 22 -34 52 -41 66 -7 14 -42 56 -77 93 -35 37 -73 84 -84 104 -11 20 -38 62 -60 92 -21 30 -57 84 -79 120 -21 36 -54 79 -71 95 -18 17 -41 48 -52 70 -11 22 -24 42 -28 45 -3 3 -26 34 -50 70 -23 36 -64 88 -90 115 -27 28 -61 71 -77 97 -52 87 -172 263 -205 302 -18 21 -46 47 -63 57 -29 18 -397 19 -13096 19 l-13065 0 -45 -37z m5025 -3004 c33 -15 37 -28 46 -137 4 -51 13 -99 20 -107 7 -9 16 -67 21 -138 5 -68 15 -140 24 -160 8 -20 15 -56 15 -79 0 -24 7 -65 15 -92 8 -27 15 -67 15 -88 0 -21 9 -64 20 -95 14 -41 20 -83 20 -145 0 -64 5 -101 20 -138 14 -37 20 -74 20 -135 0 -61 6 -98 20 -135 13 -34 20 -74 20 -120 0 -46 7 -88 20 -122 14 -37 20 -78 20 -138 1 -53 7 -100 17 -125 9 -23 19 -96 24 -175 5 -74 16 -151 24 -170 8 -19 17 -53 20 -75 3 -22 12 -62 20 -89 8 -27 15 -84 15 -126 0 -50 7 -95 20 -133 12 -33 20 -82 20 -120 0 -37 8 -86 20 -120 14 -39 20 -82 20 -141 0 -62 6 -99 20 -136 15 -37 20 -74 20 -139 0 -67 5 -99 20 -132 14 -32 20 -66 20 -122 0 -53 5 -88 17 -110 11 -21 19 -71 24 -147 4 -63 14 -133 23 -155 8 -22 15 -70 16 -106 0 -37 7 -86 15 -109 8 -23 15 -69 15 -102 0 -33 9 -83 20 -115 14 -41 20 -83 20 -145 0 -64 5 -101 20 -138 15 -38 20 -74 20 -143 0 -65 5 -101 16 -122 9 -16 20 -67 25 -113 5 -45 15 -95 23 -110 8 -16 16 -71 19 -132 3 -66 11 -121 22 -145 9 -23 19 -80 22 -135 3 -52 14 -124 24 -159 10 -35 19 -91 19 -126 0 -34 7 -79 15 -98 9 -22 15 -68 15 -115 0 -45 7 -100 16 -128 9 -27 20 -89 24 -139 4 -49 15 -108 23 -130 10 -25 16 -72 17 -127 0 -63 6 -101 20 -138 13 -33 20 -74 20 -118 0 -42 8 -89 20 -125 14 -40 20 -82 20 -146 0 -67 5 -99 20 -132 15 -33 20 -66 20 -131 0 -63 6 -103 20 -140 13 -34 20 -77 20 -119 0 -37 7 -86 15 -109 8 -23 15 -61 15 -84 1 -22 9 -66 20 -96 14 -40 20 -83 20 -160 0 -77 6 -120 20 -160 11 -31 19 -82 20 -117 0 -35 9 -89 19 -120 12 -34 22 -102 26 -162 4 -63 12 -116 22 -134 8 -17 17 -67 20 -111 3 -45 13 -107 24 -139 12 -37 19 -86 19 -140 1 -55 7 -100 20 -137 11 -30 20 -82 20 -115 0 -33 7 -82 15 -109 8 -27 15 -78 15 -112 0 -40 7 -82 20 -114 13 -33 20 -74 20 -118 0 -42 8 -89 20 -125 14 -39 20 -82 20 -139 0 -59 6 -98 20 -136 14 -37 20 -76 20 -137 0 -61 6 -98 20 -135 13 -33 20 -74 20 -120 0 -46 7 -87 20 -120 14 -36 20 -74 20 -134 0 -57 6 -101 20 -141 12 -36 20 -84 20 -125 0 -37 6 -83 14 -101 7 -19 16 -74 20 -122 3 -49 12 -100 20 -115 7 -15 16 -69 20 -120 3 -52 13 -106 21 -123 10 -19 18 -69 21 -141 3 -73 11 -122 21 -142 10 -19 19 -73 23 -141 4 -60 15 -128 23 -150 10 -25 16 -73 17 -130 0 -62 7 -107 20 -145 12 -33 19 -82 20 -123 0 -42 6 -80 16 -98 8 -17 19 -74 23 -127 5 -54 14 -110 20 -125 6 -16 11 -57 11 -91 0 -37 8 -87 20 -121 12 -33 20 -84 20 -119 0 -36 8 -85 20 -119 14 -39 20 -82 20 -141 0 -62 6 -99 20 -136 15 -37 20 -74 20 -140 0 -66 5 -100 20 -135 14 -32 20 -69 20 -115 0 -46 7 -87 20 -120 14 -37 20 -74 20 -136 0 -59 6 -102 20 -141 11 -32 20 -82 20 -113 0 -30 5 -73 11 -95 6 -22 15 -82 20 -134 6 -52 17 -108 26 -124 10 -20 19 -75 23 -147 5 -63 15 -133 24 -155 9 -25 15 -74 16 -133 0 -68 5 -101 17 -125 14 -25 18 -62 20 -177 1 -80 5 -169 8 -199 l7 -54 -49 40 c-26 22 -64 46 -83 53 -43 16 -1262 1226 -1290 1282 -28 52 -80 105 -1617 1643 -902 903 -1403 1411 -1428 1449 -26 39 -510 531 -1377 1399 -832 832 -1352 1360 -1375 1395 -23 35 -383 403 -913 935 -517 518 -880 890 -888 909 -8 18 -11 45 -8 61 7 34 83 153 135 212 20 23 61 80 91 129 30 48 76 112 102 141 26 30 55 69 64 87 9 18 38 57 63 87 46 53 56 68 118 172 18 30 52 75 77 101 24 26 58 72 75 102 17 30 39 60 50 65 11 6 29 28 42 48 57 95 116 182 153 224 23 25 55 68 71 94 17 27 43 69 59 94 15 25 47 67 70 92 39 44 69 87 126 184 14 23 43 62 65 87 22 24 52 64 68 89 44 70 69 106 112 161 22 27 52 68 68 91 15 23 40 55 56 72 16 16 42 50 58 75 15 25 47 68 71 95 24 28 53 67 65 87 72 118 100 159 150 211 32 33 71 89 93 132 21 41 59 99 84 127 26 29 54 67 63 83 8 17 37 56 64 87 45 53 80 103 128 182 11 18 39 54 62 79 23 24 49 60 59 78 9 19 39 58 65 87 27 30 49 59 49 66 0 6 13 27 29 46 15 19 36 50 45 68 9 18 38 57 64 86 45 52 77 98 133 193 14 24 51 70 82 101 31 31 66 75 79 97 13 23 35 59 50 80 16 22 53 78 84 125 31 47 71 101 89 120 18 19 45 57 60 83 15 27 34 51 41 54 12 4 78 99 148 212 15 25 47 67 70 92 22 25 55 68 71 94 17 27 43 69 58 94 16 25 46 64 67 86 21 22 45 55 54 73 9 18 38 57 64 87 26 29 70 89 97 132 28 43 66 96 86 118 20 22 44 56 54 75 10 19 40 59 67 87 27 29 55 68 63 86 8 19 21 40 30 47 9 8 25 31 36 52 20 39 47 75 84 110 11 10 31 38 45 62 35 59 83 134 118 181 16 22 36 54 45 72 9 17 47 65 84 107 103 114 152 176 185 234 17 29 51 68 76 87 l45 35 713 0 c511 0 720 -3 738 -11z m11066 1 c11 -6 24 -27 30 -48 16 -59 12 -202 -7 -258 -13 -40 -18 -105 -22 -339 -5 -250 -8 -294 -23 -322 -16 -28 -18 -64 -18 -297 0 -242 -2 -271 -20 -318 -18 -48 -20 -78 -20 -318 -1 -222 -4 -271 -17 -305 -13 -32 -18 -91 -22 -295 -5 -217 -9 -260 -23 -287 -16 -28 -18 -64 -18 -297 0 -242 -2 -271 -20 -318 -18 -47 -20 -77 -20 -255 0 -148 -4 -214 -14 -245 -10 -31 -16 -111 -18 -278 -4 -201 -7 -241 -22 -275 -17 -35 -19 -73 -22 -320 -2 -243 -5 -285 -20 -320 -15 -34 -19 -81 -24 -310 -4 -215 -8 -275 -20 -295 -12 -20 -16 -81 -21 -295 -5 -216 -9 -278 -22 -310 -13 -33 -16 -83 -17 -283 0 -205 -3 -248 -17 -280 -13 -28 -18 -80 -22 -224 -5 -162 -8 -190 -24 -205 -17 -17 -133 -18 -2490 -21 -1755 -2 -2483 0 -2510 8 -30 9 -42 20 -65 63 l-27 52 -5 310 c-4 251 -8 315 -20 335 -12 20 -16 80 -21 295 -4 218 -8 278 -22 310 -14 34 -16 86 -17 340 -1 250 -4 307 -17 340 -12 31 -17 99 -23 315 -6 205 -11 285 -22 315 -11 29 -17 100 -21 255 -3 118 -10 228 -16 243 -6 16 -11 106 -11 212 0 161 -3 191 -20 235 -18 46 -20 74 -20 319 0 246 -2 272 -20 312 -18 40 -20 67 -20 295 0 229 -2 256 -20 295 -18 40 -20 67 -20 294 -1 207 -4 257 -17 290 -13 32 -18 95 -22 330 -5 247 -9 295 -23 321 -15 27 -17 67 -18 301 -2 246 -3 273 -23 323 -18 48 -21 83 -25 269 -4 248 0 294 33 327 l24 24 2961 0 c1978 0 2968 -3 2980 -10z m6588 -7 c15 -10 35 -27 45 -38 18 -20 96 -133 129 -185 9 -15 32 -49 52 -74 20 -26 36 -52 36 -57 0 -5 25 -36 55 -69 30 -33 55 -67 55 -76 0 -8 22 -39 49 -67 27 -29 60 -70 73 -93 49 -87 85 -138 130 -190 26 -29 55 -68 64 -86 9 -18 36 -54 59 -79 24 -25 52 -64 64 -87 11 -22 25 -44 31 -47 6 -3 19 -24 31 -46 11 -22 36 -58 56 -80 41 -45 113 -146 142 -200 11 -20 41 -58 66 -85 26 -26 53 -63 60 -81 8 -18 33 -53 56 -78 24 -25 53 -64 67 -88 13 -23 32 -51 42 -62 10 -11 27 -38 38 -60 11 -22 37 -56 57 -75 20 -19 46 -53 57 -75 11 -22 41 -63 67 -91 42 -47 84 -107 120 -173 8 -14 33 -48 56 -76 23 -27 54 -68 68 -90 27 -39 103 -145 162 -223 17 -22 38 -53 48 -68 67 -109 94 -145 146 -200 32 -33 68 -79 80 -102 11 -22 25 -43 31 -47 5 -3 25 -33 45 -66 19 -33 51 -77 70 -98 20 -21 50 -61 68 -89 65 -103 90 -138 119 -166 16 -16 41 -50 56 -75 14 -25 40 -64 57 -86 17 -22 39 -53 49 -70 10 -16 30 -42 44 -58 14 -15 37 -47 51 -71 55 -93 106 -163 156 -216 30 -30 66 -76 82 -101 45 -73 90 -141 121 -184 16 -22 37 -53 45 -70 8 -16 37 -50 62 -75 26 -25 64 -69 84 -99 66 -99 110 -166 138 -210 16 -25 61 -80 101 -123 39 -44 72 -84 72 -91 0 -7 16 -32 36 -57 20 -25 42 -58 49 -75 7 -16 32 -50 55 -75 23 -25 48 -57 55 -71 29 -54 134 -205 160 -229 15 -14 36 -42 47 -63 11 -22 36 -58 57 -80 36 -39 68 -84 115 -161 52 -82 145 -207 197 -264 33 -34 59 -68 59 -73 0 -6 20 -38 45 -71 25 -33 45 -64 45 -69 0 -5 17 -28 39 -52 21 -23 52 -63 67 -88 16 -25 43 -67 59 -94 17 -26 48 -69 71 -94 23 -25 54 -66 69 -90 15 -24 47 -68 71 -98 47 -58 52 -78 30 -121 -8 -15 -101 -112 -206 -217 -105 -104 -198 -206 -207 -225 -10 -22 -586 -606 -1519 -1540 -871 -872 -1509 -1520 -1519 -1540 -10 -20 -541 -560 -1255 -1275 -762 -764 -1247 -1257 -1263 -1285 -25 -43 -2957 -2978 -3023 -3027 l-30 -21 -2 36 c-1 21 -5 80 -8 134 -5 83 -3 102 15 142 13 28 21 66 21 103 0 36 8 75 20 102 15 33 20 65 20 132 0 65 5 103 20 141 14 37 20 77 20 134 0 54 7 103 20 144 11 34 20 90 20 124 1 33 7 79 15 101 8 22 15 76 15 123 0 57 6 100 20 139 12 34 20 84 20 123 1 36 8 83 17 105 8 22 19 81 23 130 5 50 18 118 29 153 16 47 21 84 20 145 -2 63 2 90 16 117 13 25 20 68 25 150 4 71 13 129 24 152 9 22 16 65 16 105 1 41 8 90 20 123 13 37 19 82 20 136 0 46 7 100 15 124 8 23 15 61 15 85 0 23 9 68 20 100 14 40 20 84 20 140 0 56 6 100 20 140 14 40 20 84 20 141 0 60 6 98 20 134 14 37 20 75 20 138 1 55 7 102 17 127 9 23 19 89 23 155 4 77 12 125 23 147 9 18 17 54 17 81 0 27 9 78 20 112 11 34 20 86 20 115 0 28 7 74 15 101 8 27 15 84 15 127 0 52 7 96 20 134 12 36 20 84 20 128 1 39 8 87 17 110 8 22 19 92 23 155 6 83 13 127 29 160 16 35 21 65 21 136 0 70 5 102 20 135 14 32 20 66 20 122 0 53 5 88 17 110 11 21 19 71 24 147 4 63 14 133 23 155 8 22 15 68 16 101 0 34 7 81 15 104 8 23 15 63 15 89 1 25 7 64 15 86 8 22 18 87 21 145 4 58 13 121 21 140 8 19 16 86 19 150 3 63 13 135 21 160 8 25 19 88 23 140 4 55 14 109 24 127 11 22 16 58 16 118 0 60 6 103 20 142 12 34 20 83 20 119 0 34 9 89 20 124 11 34 20 89 20 121 0 32 7 78 15 103 8 24 17 71 19 104 3 33 11 76 19 95 8 19 18 83 22 143 4 60 14 121 21 136 8 15 17 66 20 115 4 48 12 102 19 119 7 17 16 80 20 140 4 60 13 120 20 134 7 14 16 74 20 134 4 60 14 128 22 150 8 23 18 97 22 166 4 69 15 154 24 190 22 89 38 172 47 252 5 37 14 76 20 87 6 12 15 78 20 147 5 69 14 131 20 139 6 7 15 57 20 111 5 55 16 117 24 139 9 23 15 76 16 125 1 51 7 101 16 125 9 22 19 93 24 158 5 72 13 123 21 133 8 10 16 60 20 138 4 79 12 132 22 151 8 17 18 61 21 98 3 37 10 76 16 88 6 11 14 66 16 122 3 65 12 121 25 155 12 33 19 78 19 120 0 43 7 86 20 120 14 37 20 76 20 137 0 52 6 99 15 120 8 20 17 81 20 138 4 56 13 120 21 143 8 22 18 83 23 136 5 53 14 106 21 117 6 12 15 74 19 139 5 65 13 127 19 138 6 11 14 49 18 84 4 36 11 76 17 90 5 14 13 68 17 120 4 56 14 109 24 127 11 23 16 59 16 125 1 61 6 107 17 133 9 23 18 88 22 155 5 85 11 122 24 140 13 19 17 47 17 125 1 66 6 114 17 140 8 22 19 82 25 134 5 52 16 107 24 122 9 18 16 70 19 134 3 61 11 121 20 142 8 19 18 74 21 122 4 47 11 95 16 105 6 10 14 53 18 95 4 42 15 94 23 116 10 24 16 72 17 123 0 56 6 101 20 139 11 32 20 72 20 91 0 22 8 41 25 57 l24 25 721 0 c669 0 723 -1 748 -17z m-7206 -9541 c34 -33 39 -160 9 -227 -20 -45 -21 -65 -21 -334 -1 -240 -4 -292 -17 -326 -13 -32 -17 -94 -22 -295 -5 -215 -9 -260 -24 -287 -15 -28 -17 -64 -17 -296 0 -241 -2 -269 -21 -323 -18 -52 -21 -88 -23 -289 -2 -170 -7 -242 -18 -275 -12 -35 -15 -105 -17 -302 -1 -225 -4 -265 -21 -319 -18 -54 -20 -90 -20 -299 0 -211 -2 -243 -20 -295 -18 -51 -20 -84 -20 -281 0 -200 -2 -229 -20 -274 -18 -46 -20 -75 -20 -318 0 -244 -2 -271 -20 -311 -18 -39 -20 -65 -20 -292 0 -225 -2 -253 -20 -299 -18 -46 -20 -74 -20 -315 0 -241 -2 -270 -20 -317 -18 -47 -20 -77 -20 -254 0 -149 -4 -213 -15 -250 -11 -37 -15 -105 -15 -287 0 -212 -2 -244 -20 -294 -18 -51 -20 -83 -20 -298 -1 -211 -3 -247 -20 -295 -17 -49 -19 -85 -20 -335 -1 -236 -3 -286 -17 -320 -14 -32 -18 -92 -22 -315 -5 -236 -8 -280 -23 -307 -16 -28 -18 -63 -18 -277 0 -218 -2 -251 -19 -298 -18 -47 -20 -85 -23 -353 -3 -254 -6 -305 -19 -330 -9 -16 -20 -53 -23 -80 -4 -28 -11 -56 -14 -62 -4 -7 -178 -184 -386 -395 -928 -938 -1233 -1241 -1264 -1254 -28 -12 -36 -12 -60 0 -36 19 -1072 1060 -1105 1110 -14 21 -134 148 -266 281 -210 212 -241 248 -251 286 -6 24 -16 55 -22 69 -8 16 -14 125 -18 301 -4 199 -9 281 -18 292 -17 20 -21 72 -26 362 -3 187 -8 259 -19 285 -11 26 -17 105 -22 300 -4 168 -11 272 -19 285 -7 13 -13 120 -16 315 -4 256 -7 299 -22 327 -16 28 -18 63 -18 296 0 238 -2 270 -20 322 -17 50 -20 84 -20 255 0 139 -4 211 -14 246 -9 31 -17 129 -21 264 -5 136 -12 228 -20 250 -9 24 -15 124 -20 319 -5 223 -10 293 -22 320 -12 28 -16 95 -20 316 -4 228 -8 286 -21 315 -13 28 -17 89 -22 305 -5 215 -10 278 -23 310 -13 33 -16 84 -17 301 0 221 -3 268 -17 305 -14 36 -18 94 -22 315 -5 220 -9 274 -21 289 -12 14 -16 63 -21 234 -3 130 -10 227 -17 244 -8 18 -12 92 -12 206 0 146 -3 189 -19 237 -15 50 -19 108 -25 394 -5 240 -10 346 -20 375 -9 27 -16 124 -21 299 -4 171 -11 269 -20 290 -8 21 -15 122 -19 313 -5 212 -11 292 -21 318 -11 25 -15 77 -15 190 0 182 8 213 67 244 38 20 46 20 2345 18 l2307 -2 23 -23z" />
  </g>
</svg>
