<?xml version="1.0" encoding="UTF-8" standalone="no"?>
<svg
   xmlns:dc="http://purl.org/dc/elements/1.1/"
   xmlns:cc="http://creativecommons.org/ns#"
   xmlns:rdf="http://www.w3.org/1999/02/22-rdf-syntax-ns#"
   xmlns:svg="http://www.w3.org/2000/svg"
   xmlns="http://www.w3.org/2000/svg"
   id="svg8"
   preserveAspectRatio="xMidYMid meet"
   viewBox="0 0 4030.000000 4030.000000"
   height="4030.000000pt"
   width="4030.000000pt"
   version="1.0">
  <defs
     id="defs12" />
  <metadata
     id="metadata2">
Created by potrace 1.15, written by Peter Selinger 2001-2017
<rdf:RDF>
  <cc:Work
     rdf:about="">
    <dc:format>image/svg+xml</dc:format>
    <dc:type
       rdf:resource="http://purl.org/dc/dcmitype/StillImage" />
  </cc:Work>
</rdf:RDF>
</metadata>
  <g
     id="g6"
     stroke="none"
     fill="#b71c1c"
     transform="translate(0.000000,4030.000000) scale(0.100000,-0.100000)">
    <path
       id="path4"
       d="M7037 35019 c-26 -17 -59 -51 -74 -75 -15 -25 -50 -71 -76 -102 -27 -31 -58 -74 -68 -95 -11 -21 -37 -55 -58 -75 -21 -20 -46 -53 -56 -72 -10 -19 -33 -56 -51 -81 -19 -26 -34 -51 -34 -57 0 -6 -23 -34 -51 -64 -28 -29 -60 -71 -70 -94 -11 -22 -37 -57 -58 -77 -21 -20 -49 -56 -61 -79 -12 -23 -33 -56 -47 -72 -14 -17 -29 -39 -33 -50 -5 -12 -31 -46 -59 -78 -28 -31 -51 -60 -51 -66 0 -5 -23 -35 -50 -66 -28 -32 -58 -72 -67 -89 -9 -18 -29 -48 -44 -67 -16 -19 -29 -39 -29 -45 0 -6 -25 -39 -55 -73 -31 -35 -63 -78 -72 -95 -9 -18 -29 -48 -44 -67 -16 -19 -29 -38 -29 -43 0 -11 -40 -65 -71 -96 -14 -14 -38 -48 -53 -74 -15 -27 -40 -60 -55 -73 -16 -13 -43 -48 -60 -77 -17 -28 -39 -63 -50 -77 -10 -14 -48 -70 -84 -125 -36 -55 -87 -120 -112 -145 -26 -24 -53 -56 -60 -71 -24 -45 -133 -205 -151 -220 -9 -7 -32 -38 -51 -69 -20 -30 -53 -74 -74 -97 -20 -22 -47 -59 -58 -80 -11 -22 -27 -46 -36 -53 -9 -8 -27 -34 -40 -59 -13 -25 -39 -62 -59 -81 -20 -19 -45 -52 -56 -75 -11 -22 -31 -52 -45 -67 -14 -15 -25 -31 -25 -35 0 -5 -29 -43 -65 -86 -36 -43 -65 -84 -65 -91 0 -7 -16 -28 -36 -47 -19 -19 -48 -57 -64 -84 -16 -28 -39 -61 -50 -73 -12 -12 -27 -37 -35 -56 -8 -18 -35 -55 -60 -82 -26 -27 -54 -62 -62 -79 -9 -16 -31 -50 -50 -74 -18 -24 -33 -50 -33 -57 0 -8 -23 -37 -51 -66 -28 -29 -56 -66 -63 -83 -8 -16 -32 -50 -55 -75 -23 -25 -50 -56 -58 -70 -9 -14 -37 -56 -62 -95 -25 -38 -63 -91 -85 -116 -23 -25 -48 -59 -56 -75 -8 -16 -33 -49 -55 -74 -22 -25 -65 -85 -95 -134 -30 -48 -73 -109 -96 -135 -42 -47 -98 -128 -145 -207 -14 -25 -39 -59 -56 -77 -34 -35 -130 -173 -156 -223 -9 -17 -30 -46 -48 -65 -18 -19 -47 -56 -65 -84 -18 -27 -42 -61 -53 -75 -11 -14 -21 -30 -21 -36 0 -6 -31 -44 -70 -85 -44 -47 -83 -101 -107 -149 -22 -45 -61 -101 -99 -140 -33 -36 -85 -103 -114 -150 -29 -47 -59 -94 -67 -105 -7 -11 -33 -49 -57 -85 -24 -36 -53 -74 -65 -84 -12 -11 -31 -36 -43 -55 -12 -20 -40 -58 -63 -86 -23 -27 -71 -95 -107 -150 -37 -55 -90 -125 -120 -156 -29 -31 -70 -89 -91 -132 -22 -43 -61 -99 -90 -129 -29 -29 -78 -94 -111 -143 -32 -50 -70 -107 -85 -128 -14 -20 -35 -53 -47 -72 -11 -20 -42 -61 -67 -93 -106 -131 -247 -325 -247 -340 0 -4 -22 -33 -48 -63 -27 -29 -55 -65 -62 -79 -7 -14 -26 -43 -42 -65 -16 -22 -41 -59 -56 -82 -15 -23 -51 -66 -80 -97 -29 -30 -68 -87 -88 -127 -20 -39 -55 -92 -78 -118 -24 -25 -53 -64 -64 -87 -11 -22 -32 -52 -47 -65 -14 -13 -45 -51 -67 -84 -23 -33 -44 -62 -48 -65 -3 -3 -28 -36 -55 -75 -27 -38 -55 -76 -63 -84 -7 -7 -22 -32 -33 -55 -12 -22 -33 -52 -49 -66 -15 -14 -42 -50 -60 -80 -18 -30 -41 -64 -50 -75 -9 -11 -29 -41 -43 -66 -14 -25 -41 -59 -59 -75 -77 -69 -133 -170 -117 -213 6 -14 227 -244 493 -511 266 -267 498 -506 515 -532 35 -53 101 -120 1801 -1823 681 -682 1255 -1264 1275 -1294 21 -30 50 -68 66 -86 16 -18 545 -547 1175 -1176 795 -794 1158 -1164 1188 -1209 30 -45 458 -480 1409 -1431 920 -921 1372 -1380 1387 -1408 14 -29 364 -385 1058 -1080 1193 -1193 1377 -1380 1413 -1434 33 -48 747 -772 2043 -2071 630 -633 995 -1005 1008 -1031 13 -26 472 -492 1290 -1311 727 -728 1287 -1296 1310 -1330 47 -68 2416 -2444 2437 -2444 7 0 53 -38 100 -85 62 -60 95 -85 112 -85 17 0 47 22 99 75 41 42 89 82 105 89 41 18 1885 1867 1909 1914 11 22 522 541 1229 1249 807 807 1225 1233 1253 1275 23 35 138 159 259 278 854 847 2637 2645 2652 2674 10 19 619 639 1353 1377 734 738 1346 1360 1359 1383 13 22 636 654 1384 1402 870 872 1365 1374 1374 1395 9 22 503 524 1372 1394 748 748 1366 1374 1375 1390 9 17 22 38 29 48 6 9 565 570 1240 1245 864 863 1237 1242 1258 1278 21 36 303 324 939 958 974 970 934 927 894 984 -9 13 -33 41 -54 62 -21 22 -42 49 -45 62 -4 13 -28 44 -52 71 -24 26 -49 61 -55 77 -5 17 -13 28 -17 25 -9 -5 -81 87 -81 103 0 5 -19 32 -43 58 -40 45 -133 179 -148 214 -4 8 -32 44 -63 79 -31 36 -56 68 -56 72 0 4 -23 34 -51 66 -28 32 -58 72 -67 90 -26 49 -107 164 -148 208 -20 22 -42 54 -49 70 -7 17 -23 41 -35 55 -12 14 -34 45 -48 70 -15 25 -44 64 -66 88 -22 24 -46 56 -52 71 -6 15 -37 56 -68 91 -31 34 -56 68 -56 74 0 6 -13 27 -29 46 -15 19 -35 49 -44 65 -9 17 -34 50 -57 75 -23 24 -49 58 -57 75 -9 16 -36 53 -61 80 -25 28 -51 64 -58 81 -7 17 -20 37 -29 44 -9 7 -28 34 -42 59 -14 25 -43 64 -64 86 -21 22 -48 58 -61 80 -52 92 -86 141 -136 197 -30 33 -60 74 -67 91 -7 18 -32 51 -54 75 -23 24 -50 60 -61 80 -20 36 -58 94 -119 177 -15 22 -34 51 -41 64 -7 14 -38 51 -69 83 -31 32 -69 81 -86 108 -70 113 -92 145 -136 194 -26 28 -50 61 -53 73 -4 13 -23 41 -42 64 -19 23 -42 56 -51 73 -9 17 -38 56 -64 85 -27 30 -49 61 -49 69 0 7 -22 37 -49 65 -27 29 -60 70 -73 93 -12 23 -45 74 -73 114 -27 39 -62 92 -77 116 -15 24 -43 59 -62 77 -19 19 -41 49 -49 68 -8 19 -30 49 -47 67 -18 19 -66 84 -106 145 -40 62 -92 134 -116 160 -24 26 -51 65 -62 85 -10 20 -36 55 -58 77 -22 22 -48 58 -58 80 -10 22 -34 55 -53 73 -19 18 -76 99 -128 179 -52 81 -123 178 -159 215 -35 38 -76 88 -90 112 -56 95 -87 141 -125 185 -36 41 -53 63 -90 122 -12 19 -49 75 -123 188 -31 46 -66 95 -80 108 -13 13 -38 45 -55 72 -18 26 -46 65 -64 87 -44 53 -99 132 -122 174 -11 19 -38 55 -61 80 -23 25 -51 62 -62 84 -11 21 -29 48 -40 60 -10 12 -32 44 -48 71 -16 28 -50 71 -77 96 -44 42 -86 101 -153 214 -14 23 -44 63 -68 89 -23 25 -47 56 -52 69 -12 28 -69 109 -112 161 -34 40 -38 46 -128 181 -29 44 -73 101 -97 127 -24 26 -43 54 -43 62 0 9 -13 30 -28 48 -16 18 -39 51 -52 73 -14 22 -52 70 -86 106 -34 36 -67 76 -74 90 -7 13 -42 68 -79 122 -36 54 -75 113 -85 132 -11 19 -44 60 -74 92 -48 51 -140 180 -238 335 -18 28 -47 65 -65 84 -18 18 -44 54 -58 78 -50 85 -105 161 -157 216 -28 30 -60 71 -70 90 -10 19 -28 46 -40 60 -12 14 -35 46 -51 71 -15 25 -41 67 -58 93 -40 65 -103 134 -136 152 -24 12 -1812 14 -13087 14 l-13059 0 -46 -31z m5017 -3010 c33 -15 37 -28 46 -137 4 -51 13 -99 21 -108 7 -9 15 -62 19 -137 5 -76 14 -136 24 -159 9 -21 16 -59 16 -85 1 -26 7 -66 15 -88 8 -22 15 -58 15 -81 0 -22 9 -67 20 -99 14 -42 20 -84 20 -152 0 -68 5 -103 17 -126 11 -21 19 -71 23 -142 4 -66 14 -125 24 -147 10 -23 16 -64 16 -108 0 -46 7 -88 20 -122 14 -37 20 -78 20 -138 1 -53 7 -100 17 -125 9 -23 19 -96 24 -170 5 -71 15 -148 23 -170 8 -22 17 -58 21 -80 3 -22 12 -62 20 -89 8 -27 15 -84 15 -126 0 -50 7 -95 20 -133 12 -33 20 -82 20 -120 0 -37 8 -86 20 -120 14 -39 20 -82 20 -141 0 -62 6 -99 20 -136 15 -37 20 -74 20 -141 0 -64 5 -99 16 -122 10 -18 20 -72 25 -127 4 -52 14 -113 23 -135 9 -24 15 -73 16 -126 0 -59 6 -104 20 -144 11 -33 20 -84 20 -119 0 -34 7 -83 15 -110 8 -27 15 -73 15 -102 0 -29 9 -81 20 -116 13 -41 20 -91 20 -145 0 -58 6 -97 20 -133 15 -38 20 -75 20 -143 0 -70 5 -102 20 -136 11 -24 20 -65 20 -92 0 -27 9 -75 20 -106 13 -36 20 -85 21 -137 1 -50 8 -103 20 -140 11 -32 24 -106 29 -165 5 -58 16 -131 24 -161 9 -30 16 -80 16 -111 0 -31 6 -72 14 -90 7 -19 14 -73 15 -121 1 -52 8 -105 18 -130 9 -24 19 -83 23 -133 4 -49 15 -108 23 -130 10 -25 16 -72 17 -127 0 -63 6 -101 20 -138 13 -33 20 -74 20 -118 0 -42 8 -89 20 -125 14 -40 20 -82 20 -147 0 -66 5 -100 17 -123 10 -21 19 -71 24 -142 4 -60 14 -128 23 -150 8 -22 15 -70 16 -106 0 -37 7 -86 15 -109 8 -23 15 -61 15 -84 1 -22 9 -66 20 -96 14 -40 20 -83 20 -160 0 -77 6 -120 20 -160 12 -33 19 -82 20 -122 0 -41 7 -86 19 -115 11 -30 21 -89 25 -157 4 -63 13 -120 21 -136 8 -16 17 -66 20 -112 3 -46 14 -108 25 -140 13 -38 19 -83 19 -140 0 -58 6 -100 21 -140 12 -34 20 -83 20 -120 0 -35 7 -81 15 -103 8 -22 14 -70 15 -107 0 -43 7 -86 20 -118 13 -33 20 -74 20 -120 0 -46 7 -87 20 -120 15 -37 20 -74 20 -138 0 -63 6 -102 20 -140 14 -37 20 -76 20 -137 0 -61 6 -98 20 -135 13 -33 20 -74 20 -120 0 -46 7 -87 20 -120 15 -37 20 -74 20 -138 0 -63 6 -102 20 -140 13 -34 20 -76 20 -121 0 -38 6 -84 14 -102 7 -19 16 -73 19 -121 3 -48 12 -98 18 -110 7 -13 16 -66 19 -118 4 -57 14 -108 24 -128 11 -22 18 -67 21 -143 4 -75 11 -121 22 -142 11 -21 18 -67 21 -132 2 -59 12 -123 23 -157 12 -37 19 -87 19 -140 1 -56 7 -101 20 -138 12 -33 19 -82 20 -123 0 -42 6 -80 16 -98 8 -17 19 -74 23 -127 5 -54 14 -110 20 -125 6 -16 11 -57 11 -93 0 -39 8 -87 20 -121 12 -33 20 -83 20 -118 0 -35 8 -85 20 -118 14 -40 20 -82 20 -146 0 -67 5 -99 20 -132 15 -34 20 -66 20 -136 0 -68 5 -105 20 -143 13 -32 20 -74 20 -115 0 -41 7 -83 20 -115 14 -36 20 -74 20 -134 0 -56 7 -104 20 -146 11 -34 20 -86 20 -114 0 -28 5 -69 11 -91 6 -22 15 -83 20 -135 6 -52 17 -108 25 -125 10 -19 18 -70 21 -135 3 -67 12 -124 24 -158 13 -37 19 -79 19 -143 0 -67 4 -98 18 -122 14 -27 17 -62 18 -224 l2 -193 -34 29 c-18 17 -53 38 -76 49 -32 14 -203 180 -665 643 -342 343 -637 647 -655 674 -18 28 -698 717 -1511 1531 -835 837 -1494 1505 -1514 1535 -20 30 -628 648 -1382 1404 -740 743 -1355 1364 -1366 1380 -34 52 -157 177 -991 1015 -709 712 -813 820 -818 851 -4 20 -3 45 1 55 11 30 108 173 156 230 23 28 50 64 59 80 56 93 84 133 129 183 27 30 49 60 49 66 0 6 23 38 51 70 28 33 57 73 65 88 9 16 31 49 50 74 19 24 34 49 34 55 0 6 23 35 50 65 28 31 59 72 70 93 10 20 39 58 64 84 25 26 46 53 46 60 0 8 7 19 16 26 8 8 33 44 55 81 22 38 48 74 57 81 18 12 92 118 139 196 12 20 40 57 61 82 38 44 89 118 145 209 16 25 45 64 66 86 20 22 45 56 55 75 10 19 29 46 41 60 13 14 30 39 39 57 9 17 38 57 66 89 27 31 50 61 50 66 0 5 17 27 39 51 21 23 55 67 75 97 20 30 55 78 79 106 23 28 50 64 59 80 58 96 86 134 139 193 33 36 77 98 97 138 20 40 60 100 89 134 29 33 53 64 53 70 0 5 22 33 50 64 27 30 59 71 70 92 25 47 109 165 142 201 14 15 38 47 53 72 15 25 44 64 64 86 34 40 62 80 125 182 15 26 47 68 70 93 22 25 55 68 71 94 17 27 43 69 58 94 16 25 55 73 87 106 32 33 66 76 75 95 10 19 30 50 44 69 14 19 35 49 46 67 44 71 93 140 117 164 14 14 38 45 53 70 16 25 41 59 55 75 15 17 55 73 90 125 93 141 101 152 139 193 20 21 41 50 47 65 6 15 21 38 34 52 12 14 30 41 40 61 10 19 38 57 62 85 24 27 50 62 58 78 8 16 35 52 60 80 25 28 75 96 112 151 36 55 76 109 88 120 12 11 31 37 41 57 11 21 44 65 74 99 30 34 55 68 55 75 0 7 13 28 29 46 15 18 36 49 46 68 10 19 39 56 64 83 25 26 53 62 61 80 8 18 27 48 41 67 14 19 34 49 45 66 66 107 134 202 158 217 15 10 42 42 60 70 19 29 42 59 52 67 9 8 37 44 60 80 23 36 63 85 88 108 l46 42 714 0 c512 0 722 -3 740 -11z m11060 1 c17 -6 28 -21 35 -47 17 -60 13 -203 -6 -259 -14 -40 -18 -103 -22 -339 -5 -250 -8 -294 -23 -322 -16 -28 -18 -64 -18 -297 0 -242 -2 -271 -20 -318 -18 -48 -20 -78 -20 -318 -1 -222 -4 -271 -17 -305 -13 -32 -18 -91 -22 -295 -5 -221 -8 -258 -23 -280 -16 -22 -18 -54 -18 -297 0 -249 -2 -277 -20 -325 -18 -47 -20 -77 -20 -254 0 -161 -3 -210 -16 -245 -13 -34 -17 -97 -21 -284 -4 -182 -9 -248 -20 -275 -12 -28 -16 -93 -19 -310 -3 -230 -6 -283 -20 -320 -14 -37 -18 -95 -23 -316 -5 -220 -9 -274 -21 -289 -12 -15 -16 -65 -18 -279 -3 -225 -6 -269 -23 -318 -17 -50 -19 -87 -19 -297 0 -217 -2 -245 -20 -291 -17 -44 -20 -74 -20 -219 0 -151 -2 -171 -19 -192 l-19 -24 -2474 -3 c-1682 -2 -2484 0 -2509 7 -28 9 -42 22 -65 63 l-29 53 -6 310 c-4 256 -8 317 -22 350 -13 33 -16 82 -17 295 0 227 -2 258 -17 280 -16 22 -19 62 -23 355 -4 268 -8 335 -20 355 -12 20 -16 82 -21 300 -5 216 -10 284 -22 315 -13 31 -16 81 -17 230 0 130 -5 209 -15 250 -10 40 -14 118 -15 237 0 153 -3 184 -20 228 -18 46 -20 74 -20 319 0 246 -2 272 -20 312 -18 40 -20 67 -20 295 0 229 -2 256 -20 295 -18 40 -20 67 -20 294 -1 207 -4 257 -17 290 -13 32 -18 95 -22 330 -5 250 -8 294 -23 322 -16 28 -18 64 -18 298 0 238 -2 272 -20 324 -16 50 -20 92 -23 282 -4 249 1 295 33 321 21 17 155 18 2975 18 1847 0 2963 -4 2979 -10z m6585 -4 c34 -18 93 -83 121 -133 12 -21 41 -65 65 -98 24 -33 56 -80 71 -105 15 -25 44 -63 64 -85 21 -22 46 -56 55 -75 10 -19 39 -58 64 -86 25 -28 55 -66 66 -85 48 -84 83 -136 128 -188 27 -31 56 -69 64 -86 9 -16 39 -58 67 -92 28 -33 71 -94 96 -134 25 -40 63 -94 85 -119 22 -25 65 -86 95 -134 30 -49 76 -111 101 -140 26 -28 56 -69 67 -91 11 -22 37 -56 57 -75 20 -19 47 -56 60 -81 13 -25 31 -51 40 -59 9 -7 26 -32 37 -54 11 -23 40 -62 63 -87 24 -25 51 -61 60 -80 9 -19 35 -53 58 -76 22 -23 52 -62 66 -86 53 -89 67 -111 106 -160 40 -49 73 -94 159 -217 26 -36 61 -84 79 -107 39 -51 67 -92 109 -162 18 -30 58 -82 91 -115 32 -34 67 -77 77 -97 11 -20 30 -49 43 -65 13 -16 32 -44 42 -63 9 -19 36 -55 60 -80 23 -25 50 -62 60 -81 10 -19 21 -37 25 -40 4 -3 23 -30 43 -60 19 -30 47 -66 62 -80 15 -14 36 -43 47 -65 12 -22 38 -60 59 -86 22 -25 39 -50 39 -56 0 -5 19 -32 43 -58 23 -27 53 -67 67 -90 56 -94 106 -163 160 -220 32 -33 66 -78 78 -100 11 -22 29 -49 40 -61 11 -11 28 -36 37 -55 10 -19 29 -47 42 -63 13 -16 32 -45 42 -65 11 -20 42 -59 69 -87 47 -48 202 -267 238 -336 9 -18 47 -63 85 -102 38 -39 69 -74 69 -79 0 -5 15 -31 34 -57 19 -26 42 -62 51 -79 9 -18 37 -56 63 -86 26 -29 72 -93 102 -141 30 -49 74 -109 96 -134 23 -25 49 -60 59 -79 9 -18 34 -52 54 -75 21 -22 50 -59 64 -81 15 -22 34 -51 44 -65 9 -14 41 -62 71 -107 29 -46 85 -117 123 -159 38 -42 69 -82 69 -90 0 -7 13 -28 29 -46 16 -18 39 -52 52 -75 13 -23 42 -63 64 -89 22 -26 49 -61 60 -79 61 -97 84 -131 120 -176 22 -28 54 -69 70 -92 17 -24 49 -66 73 -96 46 -58 51 -82 24 -123 -10 -15 -102 -111 -204 -213 -113 -112 -198 -207 -216 -238 -22 -37 -453 -474 -1517 -1537 -956 -955 -1494 -1499 -1507 -1525 -13 -26 -469 -489 -1261 -1282 -795 -795 -1247 -1255 -1259 -1280 -22 -46 -2930 -2960 -2998 -3004 l-45 -30 -9 33 c-18 67 -18 201 -1 248 10 25 21 77 25 115 4 39 15 87 24 107 11 25 16 66 16 128 0 66 5 104 20 142 14 37 20 77 20 134 0 54 7 103 20 144 11 34 20 90 20 124 1 33 7 79 15 101 8 22 15 76 15 123 0 57 6 100 20 139 12 34 20 83 20 120 0 36 8 84 19 115 11 29 21 89 24 133 3 45 13 98 22 120 13 28 19 72 21 147 2 78 7 115 20 140 13 23 19 63 22 133 2 65 10 118 23 153 11 32 19 79 19 120 1 40 8 89 20 122 13 38 19 82 20 141 0 54 6 100 15 122 8 20 15 56 15 80 0 24 9 70 20 102 14 40 20 84 20 140 0 56 6 100 20 140 14 41 20 84 20 145 0 66 5 99 20 131 15 33 20 67 20 134 1 58 7 104 17 130 9 23 19 89 23 155 4 77 12 125 23 147 10 18 17 54 17 83 0 28 7 67 15 88 9 20 20 80 25 133 5 52 14 108 20 123 5 15 10 63 10 107 0 51 7 99 19 136 11 32 21 96 24 143 3 47 12 99 20 115 9 18 17 72 21 140 4 80 11 120 24 147 15 28 20 61 21 133 1 69 7 111 21 146 13 32 20 74 20 117 0 42 8 89 20 125 14 38 20 82 20 135 0 52 7 101 20 142 11 34 20 88 20 120 0 32 7 77 15 100 8 23 15 65 15 92 0 27 7 65 16 86 8 20 19 89 23 153 5 63 14 126 21 139 8 14 16 80 20 155 4 87 12 143 23 169 11 24 17 65 17 107 0 45 7 86 20 119 15 37 20 74 20 140 0 66 5 103 20 140 13 32 20 74 20 116 0 39 8 87 20 121 11 33 20 83 20 118 0 33 9 89 20 123 11 35 20 84 20 108 0 25 6 57 14 72 7 15 17 78 21 142 4 63 13 127 21 142 8 15 17 66 20 115 4 48 12 102 20 120 7 18 16 81 20 140 3 59 12 119 19 133 7 14 16 76 20 139 4 63 14 130 22 150 9 20 18 90 22 165 4 72 13 141 19 153 6 11 16 56 21 100 5 43 14 91 20 106 6 16 11 46 11 67 0 21 9 67 20 102 12 39 20 91 20 139 0 49 7 99 20 139 11 34 20 89 20 122 0 33 9 83 20 115 14 40 20 83 20 140 0 58 6 101 20 140 14 40 20 83 20 143 0 65 5 96 21 130 17 35 21 64 21 134 -1 63 5 105 18 145 11 31 24 88 29 126 5 39 14 88 20 110 6 22 11 74 11 115 0 50 7 92 20 128 12 32 20 76 20 116 0 37 8 87 20 121 14 40 20 84 20 142 0 52 6 97 15 120 9 20 18 84 22 142 3 58 12 122 20 141 8 19 18 79 23 133 4 54 14 104 20 112 7 9 15 66 19 132 4 65 12 127 18 138 6 11 16 57 22 103 6 45 15 91 21 102 5 10 10 54 10 97 0 56 6 90 20 122 15 32 20 66 20 135 1 59 6 105 17 131 9 22 19 89 23 150 4 72 12 121 23 142 13 23 17 57 17 127 0 69 5 108 19 143 10 26 21 88 25 136 3 49 13 101 21 116 8 17 16 71 19 134 3 61 12 121 20 142 9 20 19 73 22 118 4 45 13 99 20 121 8 21 14 62 14 91 0 31 8 71 20 96 15 33 20 66 20 132 0 61 6 104 20 144 11 32 20 72 20 91 0 22 8 41 25 57 l24 25 716 0 c603 0 720 -2 744 -14z m-7197 -9544 c34 -33 39 -160 9 -227 -20 -45 -21 -65 -21 -334 -1 -241 -3 -292 -17 -326 -13 -32 -18 -92 -23 -295 -5 -215 -8 -260 -23 -285 -15 -26 -17 -63 -17 -292 0 -236 -2 -267 -21 -325 -17 -54 -21 -95 -24 -299 -3 -176 -8 -244 -19 -270 -12 -28 -15 -92 -16 -301 0 -237 -3 -271 -20 -321 -18 -50 -20 -83 -20 -299 0 -219 -2 -248 -20 -296 -18 -47 -20 -76 -20 -277 0 -201 -2 -230 -20 -275 -18 -46 -20 -74 -20 -315 0 -241 -2 -269 -20 -315 -18 -46 -20 -74 -20 -299 0 -227 -2 -253 -20 -292 -18 -40 -20 -67 -20 -311 0 -243 -2 -273 -20 -320 -18 -47 -20 -77 -20 -261 0 -162 -3 -216 -15 -244 -12 -28 -15 -85 -15 -279 0 -219 -2 -250 -20 -301 -18 -51 -20 -83 -20 -294 0 -195 -3 -244 -17 -285 -14 -40 -18 -104 -22 -354 -5 -246 -9 -310 -21 -330 -12 -20 -16 -80 -20 -300 -5 -235 -8 -279 -23 -305 -15 -26 -17 -62 -17 -277 0 -231 -1 -251 -22 -300 -20 -49 -21 -73 -24 -353 -3 -245 -7 -305 -19 -332 -9 -18 -19 -57 -22 -86 l-6 -52 -321 -325 c-1041 -1050 -1304 -1313 -1328 -1326 -20 -10 -34 -11 -53 -4 -31 12 -1083 1063 -1119 1117 -14 21 -133 148 -265 282 -154 155 -243 253 -247 270 -3 14 -13 46 -22 71 -12 35 -17 103 -21 316 -5 220 -9 274 -21 289 -12 15 -16 72 -21 314 -5 233 -10 303 -22 331 -11 27 -16 95 -21 295 -5 186 -11 271 -21 300 -11 31 -14 102 -15 307 0 244 -2 270 -20 313 -18 43 -20 69 -20 311 0 239 -2 270 -20 321 -17 50 -20 83 -20 259 0 144 -4 212 -14 240 -8 25 -16 117 -21 259 -4 139 -12 233 -20 255 -9 24 -15 123 -20 319 -4 217 -9 292 -21 319 -11 27 -16 102 -20 321 -5 236 -9 291 -23 316 -13 25 -17 79 -22 300 -5 216 -9 278 -22 310 -13 33 -16 84 -17 301 0 221 -3 268 -17 305 -14 36 -18 94 -22 315 -5 220 -9 274 -21 289 -12 14 -16 63 -21 234 -3 130 -10 227 -17 244 -8 18 -12 92 -12 206 0 148 -3 188 -20 242 -17 57 -20 102 -23 394 -3 263 -7 338 -19 370 -12 30 -17 106 -22 298 -5 174 -12 268 -20 290 -9 22 -15 119 -20 314 -5 213 -10 291 -21 317 -11 26 -15 78 -15 197 0 144 2 165 20 194 43 70 -166 65 2392 62 l2307 -2 23 -23z" />
  </g>
</svg>
